<?xml version="1.0" encoding="utf-8"?>
<!-- Generator: Adobe Illustrator 21.1.0, SVG Export Plug-In . SVG Version: 6.00 Build 0)  -->
<svg version="1.0" id="Layer_1" xmlns="http://www.w3.org/2000/svg" xmlns:xlink="http://www.w3.org/1999/xlink" x="0px" y="0px"
	 viewBox="0 0 1095 201" style="enable-background:new 0 0 1095 201;" xml:space="preserve">
<g style="enable-background:new    ;">
	<path style="fill:#FFFFFF;" d="M27.7,30.1v18.8h-3.3V30.1h-5V27h13.3v3.1H27.7z"/>
	<path style="fill:#FFFFFF;" d="M41.4,39.4L34.3,27h3.8l5,8.7l5-8.7h3.8l-7.2,12.4v9.4h-3.3C41.4,48.8,41.4,39.4,41.4,39.4z"/>
	<path style="fill:#FFFFFF;" d="M69.4,28.2v3.9c-1.9-1.6-3.9-2.4-5.9-2.4c-2.2,0-4.1,0.8-5.7,2.4c-1.5,1.6-2.3,3.6-2.3,5.9
		c0,2.3,0.8,4.2,2.3,5.8s3.4,2.4,5.7,2.4c1.2,0,2.1-0.2,3-0.6c0.5-0.2,0.9-0.4,1.4-0.8c0.5-0.3,1-0.7,1.5-1.2v4
		c-1.9,1.1-3.9,1.6-5.9,1.6c-3.1,0-5.8-1.1-8-3.3s-3.3-4.9-3.3-8c0-2.8,0.9-5.3,2.8-7.4c2.3-2.7,5.2-4,8.8-4
		C65.7,26.6,67.6,27.1,69.4,28.2z"/>
	<path style="fill:#FFFFFF;" d="M77.5,35.6h9.4V27h3.3v21.9h-3.3V38.7h-9.4v10.2h-3.3V27h3.3V35.6z"/>
	<path style="fill:#FFFFFF;" d="M94.4,37.8c0-3.1,1.1-5.7,3.4-7.9c2.2-2.2,4.9-3.3,8.1-3.3c3.1,0,5.8,1.1,8,3.3s3.4,4.9,3.4,8
		c0,3.1-1.1,5.8-3.4,8s-5,3.3-8.2,3.3c-2.8,0-5.4-1-7.6-2.9C95.6,44.2,94.4,41.3,94.4,37.8z M97.7,37.9c0,2.4,0.8,4.4,2.4,6
		s3.5,2.3,5.6,2.3c2.3,0,4.2-0.8,5.8-2.4c1.6-1.6,2.4-3.6,2.4-5.9c0-2.3-0.8-4.3-2.3-5.9c-1.5-1.6-3.5-2.4-5.7-2.4
		c-2.3,0-4.2,0.8-5.8,2.4C98.5,33.6,97.7,35.6,97.7,37.9z"/>
	<path style="fill:#FFFFFF;" d="M130.3,48.9V27h3.3c1.5,0,2.6,0.1,3.5,0.3c0.9,0.2,1.6,0.6,2.2,1.1c0.6,0.6,1.1,1.3,1.5,2.1
		c0.4,0.8,0.6,1.7,0.6,2.5c0,1.6-0.6,2.9-1.8,4c1.2,0.4,2.1,1.1,2.7,2.1c0.7,1,1,2.1,1,3.4c0,1.7-0.6,3.2-1.8,4.3
		c-0.7,0.7-1.5,1.2-2.4,1.5c-1,0.3-2.2,0.4-3.7,0.4h-5.1V48.9z M133.6,36.4h1c1.2,0,2.1-0.3,2.7-0.8c0.6-0.5,0.9-1.3,0.9-2.4
		c0-1-0.3-1.8-0.9-2.3s-1.4-0.8-2.5-0.8h-1.2V36.4z M133.6,45.8h2c1.5,0,2.6-0.3,3.3-0.9c0.7-0.6,1.1-1.4,1.1-2.4
		c0-0.9-0.4-1.7-1.1-2.4c-0.7-0.6-1.9-0.9-3.7-0.9h-1.7L133.6,45.8L133.6,45.8z"/>
	<path style="fill:#FFFFFF;" d="M154.9,39.5l6.8,9.3h-4l-6.2-8.9h-0.6v8.9h-3.3V27h3.9c2.9,0,5,0.5,6.3,1.6c1.4,1.2,2.1,2.8,2.1,4.8
		c0,1.5-0.4,2.9-1.3,4C157.5,38.5,156.3,39.2,154.9,39.5z M150.8,37h1c3.1,0,4.7-1.2,4.7-3.6c0-2.2-1.5-3.4-4.6-3.4h-1.2v7H150.8z"
		/>
	<path style="fill:#FFFFFF;" d="M177.8,43.6h-9.4l-2.4,5.3h-3.6l10.8-23.2l10.4,23.2H180L177.8,43.6z M176.4,40.5l-3.2-7.4l-3.4,7.4
		H176.4z"/>
	<path style="fill:#FFFFFF;" d="M189.7,35.6h9.4V27h3.3v21.9h-3.3V38.7h-9.4v10.2h-3.3V27h3.3V35.6z"/>
	<path style="fill:#FFFFFF;" d="M219.8,30.1H211v5.3h8.5v3.1H211v7.3h8.8v3.1h-12.1V27h12.1V30.1z"/>
</g>
<g style="enable-background:new    ;">
	<path style="fill:#FFFFFF;" d="M36.9,129.6v48.1H19V59.3h20.2c9.9,0,17.4,0.7,22.5,2.1c5.1,1.4,9.6,4,13.5,7.8
		c6.8,6.6,10.2,15,10.2,25.1c0,10.8-3.6,19.4-10.9,25.8c-7.3,6.3-17,9.5-29.4,9.5L36.9,129.6L36.9,129.6z M36.9,113.1h6.7
		c16.4,0,24.6-6.3,24.6-18.9c0-12.2-8.5-18.3-25.4-18.3h-5.9V113.1z"/>
</g>
<g style="enable-background:new    ;">
	<path style="fill:#FFFFFF;" d="M121.7,59.3v101.6h34.8v16.8h-52.7V59.3H121.7z"/>
</g>
<g style="enable-background:new    ;">
	<path style="fill:#FFFFFF;" d="M249.5,149h-50.7l-13.2,28.7h-19.2L225,51.9l56.5,125.8H262L249.5,149z M242.2,132.2L224.6,92
		l-18.4,40.2H242.2z"/>
</g>
<g style="enable-background:new    ;">
	<path style="fill:#FFFFFF;" d="M296.3,177.7V51.3l86.3,90.3V59.3h17.9v125.6l-86.3-90.1v82.9H296.3z"/>
</g>
<g style="enable-background:new    ;">
	<path style="fill:#FFFFFF;" d="M487.8,76.1h-47.5v28.4h46.1v16.8h-46.1v39.6h47.5v16.8h-65.3V59.3h65.3V76.1z"/>
</g>
<g style="enable-background:new    ;">
	<path style="fill:#FFFFFF;" d="M547.2,76.1v101.6h-17.9V76.1h-27.2V59.3h72.2v16.8H547.2z"/>
	<path style="fill:#FFFFFF;" d="M653.3,149h-50.7l-13.2,28.7h-19.2l58.6-125.8l56.5,125.8h-19.5L653.3,149z M646,132.2L628.4,92
		L610,132.2H646z"/>
	<path style="fill:#FFFFFF;" d="M740.2,127.3l36.6,50.4H755l-33.8-48.4H718v48.4h-17.9V59.3H721c15.6,0,26.9,2.9,33.9,8.8
		c7.7,6.5,11.5,15.2,11.5,25.9c0,8.4-2.4,15.6-7.2,21.6S748.1,125.6,740.2,127.3z M718,113.7h5.7c16.9,0,25.4-6.5,25.4-19.4
		c0-12.1-8.2-18.2-24.7-18.2H718V113.7z"/>
</g>
<g style="enable-background:new    ;">
	<path style="fill:#FFFFFF;" d="M818.9,59.3v118.4H801V59.3H818.9z"/>
</g>
<g style="enable-background:new    ;">
	<path style="fill:#FFFFFF;" d="M862.1,59.3v71.3c0,10.2,1.7,17.6,5,22.3c5,6.8,11.9,10.2,20.9,10.2s16-3.4,21-10.2
		c3.3-4.5,5-12,5-22.3V59.3h17.9v76.2c0,12.5-3.9,22.7-11.7,30.8c-8.7,9-19.5,13.5-32.2,13.5s-23.4-4.5-32.1-13.5
		c-7.8-8.1-11.7-18.3-11.7-30.8V59.3H862.1z"/>
</g>
<g style="enable-background:new    ;">
	<path style="fill:#FFFFFF;" d="M949.8,177.7l24.9-127.3l40.6,92l42.1-92l22.4,127.3h-18.3l-11.4-71.4l-35,76.9l-34-77l-12.7,71.5
		H949.8z"/>
</g>
</svg>
